<svg width="32" height="48" viewBox="0 0 32 48" fill="none" xmlns="http://www.w3.org/2000/svg">
<path d="M24.5814 34.5487V23.7093L24.6708 23.1529H24.084H24.0814H23.5814V23.6234C23.5446 23.8068 23.469 23.9818 23.3582 24.1373C23.2374 24.3067 23.0778 24.4487 22.8906 24.5516L22.8778 24.5586L22.8655 24.5663C22.4095 24.8524 22.0119 24.9966 21.5656 25.1547C21.2466 25.2617 20.9192 25.3696 20.5845 25.4799C19.9271 25.6966 19.2413 25.9226 18.5344 26.1696C18.0933 26.3159 17.6778 26.4593 17.2828 26.5956C16.6493 26.8142 16.0685 27.0147 15.5189 27.1796L15.5119 27.1817L15.5049 27.184C15.146 27.3032 14.7883 27.4186 14.4339 27.5328C13.6988 27.7698 12.9776 28.0024 12.2876 28.2562L12.2778 28.2598L12.2683 28.2637C11.4659 28.5973 10.7119 29.0321 10.0258 29.5573L10.0122 29.5677L9.99933 29.579C9.35958 30.1421 8.80087 30.787 8.33865 31.4965L8.33395 31.5038L8.32949 31.5111C7.8292 32.3402 7.52448 33.3922 7.52448 34.5975C7.52448 36.9098 8.10081 38.7751 9.36138 39.9742C10.6364 41.2464 12.899 41.7718 15.996 41.7718C19.1636 41.7718 21.4831 41.1892 22.7616 39.8568L22.7628 39.8556C23.9958 38.5615 24.5814 36.7697 24.5814 34.5487ZM27.8114 3.48711L27.8113 3.48715L27.8163 3.49107C30.2852 5.43229 31.5 7.9024 31.5 10.8366V37.2148C31.5 38.2151 31.2911 39.3381 30.908 40.5904C30.5423 41.7738 29.8179 42.8689 28.6434 43.8804L28.6432 43.8802L28.6331 43.8895C27.5198 44.9029 25.9588 45.7804 23.9282 46.4588C21.9184 47.1304 19.2819 47.5 16.0013 47.5C12.7259 47.5 10.0843 47.1303 8.07725 46.4589C6.04901 45.7803 4.48541 44.9028 3.37223 43.8895L3.37229 43.8894L3.36499 43.883C2.33506 42.9814 1.55553 41.8448 1.09605 40.5778C0.710057 39.3328 0.5 38.214 0.5 37.2174V33.001C0.5 30.8518 1.08922 28.8683 2.26609 27.1375L2.26612 27.1375L2.26951 27.1324C3.43729 25.3688 5.08097 24.1509 7.23724 23.3801C7.77188 23.2026 8.34623 23.0247 8.96565 22.8329L9.03221 22.8123C9.67751 22.6124 10.3689 22.3978 11.1029 22.1558L11.1034 22.1557C11.681 21.9646 12.2346 21.7759 12.7751 21.5917C13.6185 21.3044 14.4301 21.0278 15.2514 20.7697L15.253 20.7691C16.6143 20.3361 17.8009 19.9035 18.8118 19.5272L18.8118 19.5272L18.8185 19.5246C19.4148 19.2929 20.0205 19.0844 20.634 18.8998L20.6704 18.8888L20.7047 18.8725L21.7157 18.3918L21.7268 18.3865L21.7377 18.3806C22.1979 18.1333 22.6296 17.7714 23.0486 17.318L23.0487 17.3179C23.4717 16.8597 23.8323 16.343 24.1342 15.7729L24.1342 15.7729L24.1365 15.7685C24.4724 15.1185 24.6459 14.3999 24.6423 13.6712V11.9642C24.6466 11.2723 24.4987 10.5879 24.2092 9.95711C23.9468 9.21643 23.4361 8.56909 22.7836 8.00587C22.0993 7.41254 21.1873 6.95887 20.14 6.62241L20.14 6.62239L20.1364 6.62125C19.0599 6.28454 17.6604 6.12025 16.1125 6.12025C12.9422 6.12025 10.6733 6.70886 9.40006 8.09743L9.40003 8.0974L9.39525 8.10276C8.36695 9.25706 7.76399 10.6962 7.64496 12.2958L7.64358 12.3144V12.3329C7.64358 12.3335 7.64357 12.3339 7.64356 12.3344C7.64297 12.3349 7.64223 12.3356 7.6413 12.3364C7.62944 12.3462 7.59177 12.3677 7.52427 12.3677V12.3676L7.51639 12.3678L0.6736 12.4757C0.639004 12.4754 0.608472 12.4619 0.587853 12.4422C0.567933 12.4232 0.55897 12.4005 0.558225 12.3795V10.8418C0.558225 9.4094 0.828071 8.09345 1.41188 6.83014C1.99111 5.57986 2.88791 4.52388 4.12052 3.60173C5.35297 2.68681 6.97844 1.91206 8.94646 1.39089L8.96025 1.38724L8.9738 1.38281C10.8688 0.76342 13.2224 0.500167 16.0013 0.5C21.4626 0.500327 25.3636 1.51165 27.8114 3.48711Z" fill="#0A3871" stroke="black"/>
</svg>